<svg width="20" height="20" viewBox="0 0 20 20" fill="none" xmlns="http://www.w3.org/2000/svg">
<g clip-path="url(#clip0_11324_3565)">
<path d="M15.142 1.04956L16.9285 2.83601C16.9788 2.88633 17.0188 2.94608 17.0461 3.01186C17.0734 3.07763 17.0874 3.14814 17.0874 3.21934M17.0874 3.21934C17.0874 3.29055 17.0734 3.36105 17.0461 3.42683C17.0188 3.4926 16.9788 3.55236 16.9285 3.60267L15.142 5.38912M17.0874 3.21934L4.06827 3.21948C3.78054 3.21948 3.50459 3.33378 3.30114 3.53723C3.09768 3.74069 2.98338 4.01664 2.98338 4.30437V17.3231M2.98338 17.3231C3.05464 17.3231 3.12569 17.3089 3.19153 17.2816C3.25736 17.2543 3.31718 17.2144 3.36755 17.1639L5.15328 15.3782M2.98338 17.3231C2.91211 17.3231 2.84203 17.3089 2.7762 17.2816C2.71036 17.2543 2.65055 17.2144 2.60017 17.1639L0.813721 15.3782M16.0021 17.3231C16.2898 17.3231 16.5658 17.2088 16.7692 17.0053C16.9727 16.8019 17.087 16.5259 17.087 16.2382M13.833 17.3229H12.7481M10.5781 17.3229H9.49321M7.32301 17.323H6.23812M17.0872 14.0683V12.9835M17.0872 10.8136V9.72871M17.0872 7.55885V6.47396" stroke="#B7B7B7" stroke-width="1.2" stroke-linecap="round" stroke-linejoin="round"/>
</g>
<defs>
<clipPath id="clip0_11324_3565">
<rect width="19.5284" height="19.5284" fill="white" transform="translate(0 0.23584)"/>
</clipPath>
</defs>
</svg>
