<svg width="24" height="24" viewBox="0 0 24 24" fill="none" xmlns="http://www.w3.org/2000/svg">
<path d="M12 9.33361C12 8.97999 11.8595 8.64085 11.6094 8.3908C11.3594 8.14075 11.0203 8.00028 10.6666 8.00028H5.3333C4.97968 8.00028 4.64054 8.14075 4.39049 8.3908C4.14045 8.64085 3.99997 8.97999 3.99997 9.33361V11.3336V5.33333C3.99997 4.97971 4.14045 4.64057 4.39049 4.39052C4.64054 4.14048 4.97968 4 5.3333 4H18.6666C19.0203 4 19.3594 4.14048 19.6094 4.39052C19.8595 4.64057 20 4.97971 20 5.33333L19.9999 11.3338V9.33376C19.9999 8.98013 19.8594 8.641 19.6094 8.39095C19.3593 8.1409 19.0202 8.00042 18.6665 8.00042H13.3332C12.9796 8.00042 12.6404 8.1409 12.3904 8.39095C12.1404 8.641 12 8.97999 12 9.33361ZM12 9.33361V11.3336M22 17.3333V13.1111C22 12.6396 21.8127 12.1874 21.4793 11.854C21.1459 11.5206 20.6937 11.3333 20.2222 11.3333H3.77778C3.30628 11.3333 2.8541 11.5206 2.5207 11.854C2.1873 12.1874 2 12.6396 2 13.1111V17.3333M22 17.3333H2M22 17.3333L21.9997 19.9998M2 17.3333V19.9999" stroke="#B7B7B7" stroke-width="2" stroke-linecap="round" stroke-linejoin="round"/>
</svg>
