<svg width="24" height="24" viewBox="0 0 24 24" fill="none" xmlns="http://www.w3.org/2000/svg">
<g clip-path="url(#clip0_11336_17702)">
<path d="M3.38259 22.5919V6.56882C3.38241 6.44308 3.41635 6.31965 3.4808 6.21168C3.54525 6.10372 3.6378 6.01527 3.74856 5.95576L11.4118 1.83155C11.5178 1.77439 11.6368 1.74568 11.7571 1.74822C11.8775 1.75075 11.9952 1.78444 12.0987 1.84601C12.2022 1.90757 12.2879 1.9949 12.3476 2.09949C12.4073 2.20407 12.4388 2.32234 12.4391 2.44275V22.5919M21.4957 22.592V13.1481C21.4956 13.042 21.4713 12.9373 21.4246 12.842C21.3779 12.7467 21.3101 12.6633 21.2263 12.5982L16.3497 8.80564C16.2468 8.72533 16.1235 8.67555 15.9937 8.66201C15.8639 8.64846 15.7329 8.67169 15.6157 8.72904C15.4985 8.78638 15.3998 8.87554 15.3308 8.98632C15.2619 9.09711 15.2254 9.22505 15.2257 9.35554V22.592M22.889 22.5921H1.98926M12.439 8.65887H8.25903M12.4393 11.4457H6.86603M5.47247 5.02705V1.69238M15.2257 13.5356H17.3157M15.2257 16.3221H18.709M20.1025 11.7242V8.65887M6.86603 22.5921H9.65266V19.8055C9.65266 19.436 9.50586 19.0816 9.24457 18.8203C8.98327 18.559 8.62887 18.4122 8.25934 18.4122C7.88981 18.4122 7.53542 18.559 7.27412 18.8203C7.01282 19.0816 6.86603 19.436 6.86603 19.8055V22.5921Z" stroke="#222223" stroke-width="2" stroke-linecap="round" stroke-linejoin="round"/>
</g>
<defs>
<clipPath id="clip0_11336_17702">
<rect width="24" height="24" fill="white"/>
</clipPath>
</defs>
</svg>
