<svg width="24" height="24" viewBox="0 0 24 24" fill="none" xmlns="http://www.w3.org/2000/svg">
<path d="M11.9992 10.4691C14.5358 10.4691 16.5922 8.41278 16.5922 5.87616C16.5922 3.33954 14.5358 1.2832 11.9992 1.2832C9.4626 1.2832 7.40627 3.33954 7.40627 5.87616C7.40627 8.41278 9.4626 10.4691 11.9992 10.4691Z" stroke="#222223" stroke-width="2" stroke-linecap="round" stroke-linejoin="round"/>
<path d="M4.71934 22.7169C3.66702 22.7169 2.79409 21.8548 3.01083 20.8251C3.37512 19.0943 4.23474 17.4912 5.50444 16.2215C7.22713 14.4988 9.56361 13.531 11.9999 13.531C14.4361 13.531 16.7726 14.4988 18.4953 16.2215C19.765 17.4912 20.6246 19.0943 20.9889 20.8251C21.2056 21.8548 20.3327 22.7169 19.2804 22.7169H4.71934Z" stroke="#222223" stroke-width="2" stroke-linecap="round" stroke-linejoin="round"/>
</svg>
